<svg xmlns="http://www.w3.org/2000/svg" width="1259" height="1500" viewBox="0 0 1259 1500"><rect width="100%" height="100%" fill="#DDDDDD"/><path fill="#999999" d="M298.9 785.78h17.29v12.3h-53.2v-12.3h19.48v-56.06q0-3.33.2-6.85l-13.83 11.57q-1.2.93-2.36 1.16-1.16.24-2.19.04-1.04-.2-1.83-.7-.8-.5-1.2-1.1l-5.19-7.11 29.33-24.94h13.5zm66.17-3h24.67q2.66 0 4.22 1.5t1.56 3.96v9.84h-65.97v-5.45q0-1.67.7-3.49.7-1.83 2.23-3.3l29.19-29.26q3.66-3.72 6.55-7.11 2.9-3.39 4.83-6.72 1.92-3.32 2.96-6.75 1.03-3.42 1.03-7.21 0-3.46-1-6.09-1-2.62-2.83-4.42t-4.39-2.69q-2.56-.9-5.75-.9-2.93 0-5.42.83t-4.42 2.33q-1.93 1.49-3.26 3.49-1.33 1.99-1.99 4.39-1.14 3.06-2.93 4.05-1.8 1-5.19.47l-8.64-1.53q.99-6.92 3.85-12.14t7.15-8.71 9.85-5.25q5.55-1.76 11.93-1.76 6.65 0 12.17 1.96t9.44 5.55q3.93 3.59 6.12 8.65 2.2 5.05 2.2 11.23 0 5.32-1.57 9.85-1.56 4.52-4.19 8.64-2.62 4.12-6.15 7.98-3.52 3.86-7.38 7.85l-21.68 22.14q3.13-.93 6.22-1.43t5.89-.5m66.96-65.96-3.39 20.01q3.19-.66 6.12-.96 2.92-.3 5.65-.3 7.58 0 13.37 2.26 5.78 2.26 9.71 6.25 3.92 3.99 5.91 9.35 2 5.35 2 11.53 0 7.65-2.69 13.97-2.7 6.32-7.49 10.8-4.78 4.49-11.33 6.95t-14.27 2.46q-4.52 0-8.58-.93-4.05-.93-7.61-2.49t-6.58-3.59q-3.03-2.03-5.42-4.29l5.05-6.98q1.6-2.26 4.19-2.26 1.66 0 3.39 1.06t3.96 2.33q2.23 1.26 5.25 2.32 3.03 1.07 7.28 1.07 4.53 0 7.98-1.46 3.46-1.47 5.76-4.09 2.29-2.63 3.45-6.26 1.17-3.62 1.17-7.88 0-7.84-4.56-12.26-4.55-4.43-13.46-4.43-6.85 0-14.04 2.53l-10.24-2.93 7.98-46.68h47.48v6.98q0 3.53-2.19 5.72-2.19 2.2-7.45 2.2zm68.7 13.96q0 8.05 4.15 12.27 4.16 4.22 11.81 4.22 3.99 0 7.11-1.26 3.13-1.26 5.25-3.46 2.13-2.19 3.23-5.18 1.1-3 1.1-6.46 0-3.92-1.2-7.01t-3.39-5.22q-2.2-2.13-5.22-3.26-3.03-1.13-6.62-1.13-3.72 0-6.71 1.23-3 1.23-5.13 3.42-2.12 2.2-3.25 5.23-1.13 3.02-1.13 6.61m-8.05 67.3 29.86-37.31q1.13-1.39 2.13-2.72.99-1.33 1.92-2.66-3.32 2.12-7.31 3.22t-8.38 1.1q-4.99 0-9.78-1.73-4.78-1.73-8.51-5.22-3.72-3.49-6.02-8.64-2.29-5.16-2.29-12.07 0-6.45 2.39-12.11 2.4-5.65 6.72-9.91 4.32-4.25 10.37-6.71 6.06-2.46 13.37-2.46 7.38 0 13.27 2.32 5.88 2.33 10.04 6.52t6.38 10.04q2.23 5.86 2.23 12.84 0 4.45-.76 8.44-.77 3.99-2.16 7.68-1.4 3.69-3.4 7.22-1.99 3.52-4.45 6.98l-22.01 31.39q-1.13 1.6-3.39 2.69-2.27 1.1-5.13 1.1zm165.52-22.01-8.71 8.58-22.55-22.55-22.74 22.68-8.71-8.58 22.74-22.81-21.68-21.68 8.65-8.64 21.68 21.68 21.54-21.55 8.78 8.65-21.61 21.61zm91.04 9.71h17.29v12.3h-53.2v-12.3h19.48v-56.06q0-3.33.2-6.85l-13.83 11.57q-1.2.93-2.36 1.16-1.17.24-2.2.04t-1.83-.7q-.79-.5-1.19-1.1l-5.19-7.11 29.33-24.94h13.5zm55.99-68.96-3.39 20.01q3.19-.66 6.12-.96 2.92-.3 5.65-.3 7.58 0 13.36 2.26 5.79 2.26 9.71 6.25 3.93 3.99 5.92 9.35 2 5.35 2 11.53 0 7.65-2.7 13.97-2.69 6.32-7.48 10.8-4.79 4.49-11.34 6.95t-14.26 2.46q-4.52 0-8.58-.93-4.05-.93-7.61-2.49t-6.59-3.59q-3.02-2.03-5.42-4.29l5.06-6.98q1.59-2.26 4.19-2.26 1.66 0 3.39 1.06t3.96 2.33q2.22 1.26 5.25 2.32 3.03 1.07 7.28 1.07 4.52 0 7.98-1.46 3.46-1.47 5.75-4.09 2.3-2.63 3.46-6.26 1.17-3.62 1.17-7.88 0-7.84-4.56-12.26-4.56-4.43-13.47-4.43-6.85 0-14.03 2.53l-10.24-2.93 7.98-46.68h47.48v6.98q0 3.53-2.19 5.72-2.2 2.2-7.45 2.2zM925.79 750q0 12.57-2.69 21.85-2.69 9.27-7.45 15.32-4.75 6.06-11.24 9.01-6.48 2.96-13.99 2.96-7.52 0-13.94-2.96-6.41-2.95-11.13-9.01-4.73-6.05-7.39-15.32-2.66-9.28-2.66-21.85 0-12.63 2.66-21.88 2.66-9.24 7.39-15.29 4.72-6.05 11.13-9.01 6.42-2.96 13.94-2.96 7.51 0 13.99 2.96 6.49 2.96 11.24 9.01 4.76 6.05 7.45 15.29 2.69 9.25 2.69 21.88m-16.95 0q0-10.44-1.53-17.29t-4.09-10.91q-2.56-4.05-5.89-5.68-3.32-1.63-6.91-1.63-3.53 0-6.82 1.63t-5.82 5.68q-2.53 4.06-4.02 10.91-1.5 6.85-1.5 17.29t1.5 17.29q1.49 6.85 4.02 10.91 2.53 4.05 5.82 5.68t6.82 1.63q3.59 0 6.91-1.63 3.33-1.63 5.89-5.68 2.56-4.06 4.09-10.91t1.53-17.29m94.09 0q0 12.57-2.69 21.85-2.69 9.27-7.45 15.32-4.75 6.06-11.24 9.01-6.48 2.96-13.99 2.96-7.52 0-13.94-2.96-6.41-2.95-11.13-9.01-4.73-6.05-7.39-15.32-2.66-9.28-2.66-21.85 0-12.63 2.66-21.88 2.66-9.24 7.39-15.29 4.72-6.05 11.13-9.01 6.42-2.96 13.94-2.96 7.51 0 13.99 2.96 6.49 2.96 11.24 9.01 4.76 6.05 7.45 15.29 2.69 9.25 2.69 21.88m-16.95 0q0-10.44-1.53-17.29t-4.09-10.91q-2.56-4.05-5.89-5.68-3.32-1.63-6.91-1.63-3.53 0-6.82 1.63t-5.82 5.68q-2.53 4.06-4.02 10.91-1.5 6.85-1.5 17.29t1.5 17.29q1.49 6.85 4.02 10.91 2.53 4.05 5.82 5.68t6.82 1.63q3.59 0 6.91-1.63 3.33-1.63 5.89-5.68 2.56-4.06 4.09-10.91t1.53-17.29"/></svg>